<?xml version="1.0" standalone="no"?>
<!DOCTYPE svg PUBLIC "-//W3C//DTD SVG 20010904//EN"
 "http://www.w3.org/TR/2001/REC-SVG-20010904/DTD/svg10.dtd">
<svg version="1.0" xmlns="http://www.w3.org/2000/svg"
 width="4000.000000pt" height="4000.000000pt" viewBox="0 0 4000.000000 4000.000000"
 preserveAspectRatio="xMidYMid meet">
<metadata>
Created by potrace 1.16, written by Peter Selinger 2001-2019
</metadata>
<g transform="translate(0.000000,4000.000000) scale(0.100000,-0.100000)"
fill="#000000" stroke="none">
<path d="M15298 24478 c-56 -91 -97 -445 -114 -978 -5 -172 -10 -217 -21 -226
-21 -14 -13 -47 14 -59 l23 -10 3 -2175 c3 -2118 4 -2200 31 -2370 3 -14 5
-40 5 -58 1 -24 7 -35 24 -41 21 -8 25 -21 41 -126 16 -97 22 -118 37 -122 15
-4 19 -15 19 -47 0 -23 5 -47 12 -54 32 -32 78 4 78 61 0 25 4 37 14 37 18 0
20 9 42 143 14 89 20 107 35 107 20 0 23 12 39 160 6 58 14 119 18 135 3 17 8
816 9 1778 2 1075 7 1747 13 1747 5 0 12 15 15 33 3 17 8 48 12 67 3 19 7 192
8 383 1 246 5 351 14 360 17 17 13 45 -7 56 -16 9 -20 28 -26 143 -9 183 -53
498 -86 617 -5 20 -28 113 -50 206 -22 94 -47 189 -56 213 l-16 42 -58 0 c-49
0 -60 -3 -72 -22z m222 -3373 c1 -2091 0 -2105 -21 -2277 -11 -95 -23 -175
-25 -177 -2 -2 -4 59 -4 137 0 88 -4 142 -10 142 -7 0 -10 613 -10 1820 l0
1820 -45 0 -45 0 0 -1819 c0 -1608 -2 -1820 -15 -1825 -12 -4 -15 -30 -16
-133 l-1 -128 -18 140 c-17 131 -18 282 -19 2273 l-1 2132 114 0 114 0 2
-2105z"/>
<path d="M17070 21744 c-379 -60 -648 -244 -774 -529 -95 -213 -83 -551 27
-786 120 -259 359 -445 827 -644 362 -154 556 -281 639 -419 54 -90 72 -157
78 -287 10 -204 -37 -340 -156 -460 -119 -119 -290 -179 -512 -179 -191 0
-310 44 -436 163 -60 57 -80 86 -122 170 -56 113 -88 228 -98 356 l-6 84 -57
-6 c-128 -14 -219 -72 -270 -173 -32 -65 -39 -207 -16 -308 66 -280 291 -447
701 -517 101 -18 418 -15 542 5 471 75 771 314 875 697 19 72 23 108 23 254 0
147 -3 180 -23 248 -94 326 -340 538 -892 772 -308 131 -474 228 -579 340 -98
105 -137 208 -148 386 -17 298 132 512 401 574 80 19 263 21 332 4 211 -51
361 -242 380 -483 8 -112 10 -116 45 -116 55 0 163 30 216 60 93 53 134 133
135 260 1 250 -233 451 -614 525 -119 24 -398 28 -518 9z"/>
<path d="M20205 21749 c-602 -63 -1043 -425 -1235 -1014 -74 -230 -110 -474
-110 -760 0 -814 285 -1384 824 -1645 197 -96 381 -133 661 -133 239 -1 360
16 545 75 305 97 475 255 488 455 5 79 -15 138 -63 183 l-24 22 -98 -100
c-181 -185 -368 -274 -639 -303 -135 -15 -330 -1 -439 32 -333 100 -558 387
-654 832 -72 333 -72 884 0 1242 114 567 430 856 936 855 178 0 300 -47 408
-155 95 -96 145 -217 161 -394 l7 -74 67 6 c129 11 243 69 300 153 49 71 64
124 57 215 -16 232 -208 399 -546 474 -185 42 -442 55 -646 34z"/>
<path d="M23135 21754 c-209 -31 -339 -67 -481 -133 -282 -133 -500 -356 -636
-650 -221 -480 -251 -1234 -72 -1796 39 -119 156 -348 229 -446 191 -256 474
-432 803 -499 311 -63 690 -41 947 56 443 168 754 536 884 1050 95 375 97 895
5 1269 -131 529 -447 908 -894 1070 -166 60 -275 77 -525 80 -126 2 -243 1
-260 -1z m420 -279 c193 -35 316 -97 438 -222 178 -182 272 -425 324 -835 23
-187 23 -689 0 -876 -69 -545 -232 -845 -541 -995 -224 -109 -588 -112 -820
-7 -188 85 -345 258 -434 480 -103 255 -143 527 -143 960 0 366 30 619 101
845 117 377 377 612 725 658 76 10 277 6 350 -8z"/>
<path d="M5150 21606 l0 -103 53 -7 c28 -3 72 -6 97 -6 97 0 191 -39 239 -97
65 -79 62 4 59 -1439 l-3 -1309 -22 -40 c-57 -107 -168 -154 -365 -155 l-58 0
0 -105 0 -105 710 0 710 0 0 105 0 105 -62 0 c-176 1 -297 41 -347 114 -54 78
-54 80 -58 664 l-4 542 199 0 198 0 329 -547 c181 -302 354 -586 384 -633 177
-269 319 -334 759 -347 l212 -6 0 105 0 106 -76 11 c-49 7 -98 22 -134 42 -72
38 -174 138 -249 244 -55 77 -709 1108 -718 1131 -2 6 18 19 44 29 76 28 223
104 288 148 145 98 266 261 327 437 32 94 32 98 33 280 0 201 -11 267 -66 403
-88 219 -287 380 -566 460 -238 69 -361 77 -1194 77 l-719 0 0 -104z m1570
-165 c190 -41 309 -127 380 -276 47 -100 58 -144 70 -295 12 -142 0 -319 -29
-431 -54 -213 -190 -350 -396 -403 -104 -26 -223 -36 -437 -36 l-208 0 0 736
0 737 263 -6 c211 -4 280 -9 357 -26z"/>
<path d="M8320 21606 l0 -103 61 -7 c34 -3 83 -6 108 -6 86 0 167 -36 224 -99
71 -78 67 -1 67 -1421 0 -1407 3 -1342 -62 -1416 -61 -69 -169 -103 -335 -104
l-63 0 0 -105 0 -105 1305 0 c718 0 1305 3 1306 8 4 44 34 839 32 845 -3 4
-62 7 -132 7 l-128 0 -17 -116 c-41 -275 -94 -367 -253 -446 l-86 -43 -534 -3
-533 -3 0 721 0 720 585 0 585 0 0 125 0 125 -585 0 -585 0 0 640 0 640 423 0
c232 0 448 -4 481 -10 88 -14 176 -59 219 -112 77 -94 103 -180 132 -430 l6
-58 131 0 131 0 -6 158 c-4 86 -10 280 -13 430 l-7 272 -1229 0 -1228 0 0
-104z"/>
<path d="M11340 21606 l0 -104 88 -6 c237 -16 331 -71 362 -211 8 -35 10 -426
8 -1335 l-3 -1285 -29 -58 c-50 -103 -135 -144 -322 -154 l-104 -6 0 -104 0
-103 824 0 c891 0 950 3 1157 55 526 132 884 507 1023 1070 85 346 94 790 22
1130 -68 326 -192 575 -383 776 -241 251 -554 391 -963 428 -69 7 -427 11
-897 11 l-783 0 0 -104z m1526 -157 c452 -45 740 -276 894 -714 74 -213 105
-432 105 -755 0 -135 -6 -280 -13 -340 -62 -490 -239 -817 -542 -998 -199
-119 -371 -151 -817 -152 l-193 0 0 1485 0 1485 228 0 c126 0 278 -5 338 -11z"/>
<path d="M25060 21606 l0 -103 53 -7 c28 -3 70 -6 92 -6 53 0 134 -39 170 -81
15 -19 41 -61 56 -94 16 -33 258 -719 539 -1525 281 -806 518 -1484 527 -1508
l16 -42 181 2 181 3 322 925 c177 509 411 1179 519 1490 108 311 211 597 229
636 18 39 49 89 69 112 55 60 103 79 224 88 l102 7 0 103 0 104 -595 0 -595 0
0 -103 0 -103 130 -11 c110 -9 138 -14 187 -39 97 -49 127 -135 97 -280 -8
-42 -144 -447 -301 -898 -330 -948 -356 -1028 -428 -1311 -29 -115 -56 -203
-59 -195 -3 8 -21 82 -41 165 -56 234 -114 423 -292 950 -91 270 -226 670
-300 890 -149 442 -162 502 -129 590 34 87 105 120 282 131 l104 7 0 103 0
104 -670 0 -670 0 0 -104z"/>
<path d="M28510 21605 c0 -102 1 -105 23 -105 12 -1 67 -5 122 -9 164 -14 248
-65 291 -177 18 -47 19 -98 19 -1354 0 -1440 5 -1331 -61 -1409 -54 -64 -176
-101 -335 -101 l-59 0 0 -105 0 -105 1305 0 c1236 0 1305 1 1305 18 0 9 7 170
15 357 8 187 15 373 15 413 l0 72 -128 0 -129 0 -22 -136 c-34 -204 -63 -276
-146 -358 -44 -44 -132 -90 -203 -105 -35 -7 -220 -11 -552 -11 l-500 0 0 720
0 720 585 0 585 0 0 125 0 125 -585 0 -585 0 0 640 0 640 428 0 c533 0 577 -8
681 -111 75 -75 113 -173 131 -339 6 -52 13 -110 16 -127 l5 -33 131 0 131 0
-7 98 c-3 53 -8 228 -11 387 -3 160 -8 309 -11 333 l-5 42 -1225 0 -1224 0 0
-105z"/>
<path d="M31530 21606 l0 -104 88 -6 c180 -12 264 -42 313 -109 62 -86 60 -18
57 -1438 -3 -1427 2 -1320 -64 -1398 -54 -64 -176 -101 -335 -101 l-59 0 0
-105 0 -105 710 0 710 0 0 103 0 104 -107 6 c-187 11 -268 50 -319 154 l-29
58 -3 553 -3 552 198 0 198 -1 330 -551 c182 -303 357 -591 390 -642 169 -256
315 -321 753 -333 l212 -6 0 105 0 106 -73 10 c-124 19 -210 70 -306 182 -80
92 -97 118 -477 720 l-332 524 87 36 c335 138 537 357 602 650 18 83 18 343 0
425 -88 400 -349 609 -862 692 -89 14 -216 17 -891 20 l-788 4 0 -105z m1445
-146 c219 -24 337 -71 429 -170 64 -70 107 -154 133 -260 28 -115 25 -474 -5
-583 -59 -215 -163 -329 -362 -399 -91 -32 -249 -48 -472 -48 l-208 0 0 735 0
735 198 0 c108 0 238 -5 287 -10z"/>
</g>
</svg>
